<svg xmlns="http://www.w3.org/2000/svg" xmlns:xlink="http://www.w3.org/1999/xlink" width="800" zoomAndPan="magnify" viewBox="0 0 600 599.999999" height="800" preserveAspectRatio="xMidYMid meet" version="1.2"><defs><clipPath id="2f16e71abf"><path d="M 9 17.167969 L 591.648438 17.167969 L 591.648438 467 L 9 467 Z M 9 17.167969 "/></clipPath><clipPath id="dc7e35f289"><path d="M 346 485 L 444 485 L 444 582.667969 L 346 582.667969 Z M 346 485 "/></clipPath><clipPath id="451bba6b9d"><path d="M 69 485 L 167 485 L 167 582.667969 L 69 582.667969 Z M 69 485 "/></clipPath></defs><g id="3d399fd28e"><g clip-rule="nonzero" clip-path="url(#2f16e71abf)"><path style=" stroke:none;fill-rule:nonzero;fill:#fa0404;fill-opacity:1;" d="M 14.753906 110.703125 C 19.378906 105.09375 26.269531 101.847656 33.550781 101.847656 L 449.429688 101.847656 L 469.449219 34.605469 C 472.523438 24.265625 482.023438 17.179688 492.808594 17.179688 L 567.21875 17.179688 C 580.679688 17.179688 591.59375 28.097656 591.59375 41.558594 C 591.59375 55.023438 580.679688 65.929688 567.21875 65.929688 L 510.988281 65.929688 L 419.890625 371.921875 C 429.765625 390.027344 439.132812 415.945312 428.511719 437.65625 C 419.109375 456.878906 397.863281 466.628906 365.371094 466.628906 C 364.78125 466.628906 364.191406 466.605469 363.605469 466.546875 C 361.492188 466.355469 151.5 447.101562 79.097656 451.203125 C 68.542969 451.765625 59.398438 443.6875 58.796875 433.074219 C 58.199219 422.464844 66.316406 413.375 76.933594 412.785156 C 150.441406 408.636719 348.949219 426.558594 366.222656 428.144531 C 384.039062 428.023438 392.289062 424.105469 393.9375 420.753906 C 395.773438 417.015625 394.464844 409.953125 391.378906 401.964844 C 390.859375 401.933594 390.347656 401.929688 389.816406 401.863281 L 71.679688 363.382812 C 61.164062 362.105469 52.671875 354.1875 50.671875 343.792969 L 9.613281 130.84375 C 8.242188 123.695312 10.125 116.308594 14.753906 110.703125 Z M 191.34375 228.941406 L 291.402344 228.941406 L 291.402344 150.597656 L 191.34375 150.597656 Z M 404.710938 252.03125 L 314.492188 252.03125 L 314.492188 343.648438 L 375.253906 351.003906 Z M 291.402344 252.03125 L 191.34375 252.03125 L 191.34375 328.75 L 291.402344 340.851562 Z M 78.167969 228.941406 L 168.246094 228.941406 L 168.246094 150.597656 L 63.0625 150.597656 Z M 314.492188 150.597656 L 314.492188 228.941406 L 411.589844 228.941406 L 434.914062 150.597656 Z M 168.246094 325.953125 L 168.246094 252.03125 L 82.621094 252.03125 L 95.171875 317.109375 Z M 168.246094 325.953125 "/></g><g clip-rule="nonzero" clip-path="url(#dc7e35f289)"><path style=" stroke:none;fill-rule:nonzero;fill:#fa0404;fill-opacity:1;" d="M 346.566406 534.121094 C 346.566406 535.714844 346.644531 537.308594 346.800781 538.894531 C 346.957031 540.480469 347.1875 542.058594 347.5 543.621094 C 347.8125 545.1875 348.199219 546.730469 348.660156 548.257812 C 349.125 549.785156 349.660156 551.285156 350.273438 552.757812 C 350.882812 554.230469 351.5625 555.671875 352.316406 557.078125 C 353.066406 558.484375 353.886719 559.851562 354.773438 561.179688 C 355.660156 562.503906 356.609375 563.785156 357.621094 565.015625 C 358.632812 566.25 359.703125 567.429688 360.828125 568.558594 C 361.957031 569.6875 363.136719 570.757812 364.371094 571.769531 C 365.601562 572.78125 366.882812 573.730469 368.210938 574.613281 C 369.535156 575.5 370.902344 576.320312 372.308594 577.074219 C 373.714844 577.824219 375.15625 578.503906 376.628906 579.117188 C 378.101562 579.726562 379.601562 580.261719 381.128906 580.726562 C 382.65625 581.1875 384.199219 581.574219 385.765625 581.886719 C 387.328125 582.199219 388.90625 582.433594 390.492188 582.589844 C 392.082031 582.746094 393.671875 582.824219 395.265625 582.824219 C 396.863281 582.824219 398.453125 582.746094 400.039062 582.589844 C 401.628906 582.433594 403.203125 582.199219 404.769531 581.886719 C 406.332031 581.574219 407.878906 581.1875 409.40625 580.726562 C 410.929688 580.261719 412.429688 579.726562 413.90625 579.117188 C 415.378906 578.503906 416.820312 577.824219 418.226562 577.074219 C 419.632812 576.320312 421 575.5 422.324219 574.613281 C 423.652344 573.730469 424.929688 572.78125 426.164062 571.769531 C 427.394531 570.757812 428.578125 569.6875 429.703125 568.558594 C 430.832031 567.429688 431.902344 566.25 432.914062 565.015625 C 433.925781 563.785156 434.875 562.503906 435.761719 561.179688 C 436.648438 559.851562 437.464844 558.484375 438.21875 557.078125 C 438.96875 555.671875 439.652344 554.230469 440.261719 552.757812 C 440.871094 551.285156 441.410156 549.785156 441.871094 548.257812 C 442.335938 546.730469 442.722656 545.1875 443.035156 543.621094 C 443.34375 542.058594 443.578125 540.480469 443.734375 538.894531 C 443.890625 537.308594 443.96875 535.714844 443.96875 534.121094 C 443.96875 532.527344 443.890625 530.933594 443.734375 529.347656 C 443.578125 527.757812 443.34375 526.183594 443.035156 524.621094 C 442.722656 523.054688 442.335938 521.507812 441.871094 519.984375 C 441.410156 518.457031 440.871094 516.957031 440.261719 515.484375 C 439.652344 514.007812 438.96875 512.570312 438.21875 511.164062 C 437.464844 509.753906 436.648438 508.390625 435.761719 507.0625 C 434.875 505.738281 433.925781 504.457031 432.914062 503.222656 C 431.902344 501.992188 430.832031 500.8125 429.703125 499.683594 C 428.578125 498.554688 427.394531 497.484375 426.164062 496.472656 C 424.929688 495.460938 423.652344 494.511719 422.324219 493.625 C 421 492.738281 419.632812 491.921875 418.226562 491.167969 C 416.820312 490.417969 415.378906 489.734375 413.90625 489.125 C 412.429688 488.515625 410.929688 487.976562 409.40625 487.515625 C 407.878906 487.050781 406.332031 486.664062 404.769531 486.355469 C 403.203125 486.042969 401.628906 485.808594 400.039062 485.652344 C 398.453125 485.496094 396.863281 485.417969 395.265625 485.417969 C 393.671875 485.417969 392.082031 485.496094 390.492188 485.652344 C 388.90625 485.808594 387.328125 486.042969 385.765625 486.355469 C 384.199219 486.664062 382.65625 487.050781 381.128906 487.515625 C 379.601562 487.976562 378.101562 488.515625 376.628906 489.125 C 375.15625 489.734375 373.714844 490.417969 372.308594 491.167969 C 370.902344 491.921875 369.535156 492.738281 368.210938 493.625 C 366.882812 494.511719 365.601562 495.460938 364.371094 496.472656 C 363.136719 497.484375 361.957031 498.554688 360.828125 499.683594 C 359.703125 500.8125 358.632812 501.992188 357.621094 503.222656 C 356.609375 504.457031 355.660156 505.738281 354.773438 507.0625 C 353.886719 508.390625 353.066406 509.753906 352.316406 511.164062 C 351.5625 512.570312 350.882812 514.007812 350.273438 515.484375 C 349.660156 516.957031 349.125 518.457031 348.660156 519.984375 C 348.199219 521.507812 347.8125 523.054688 347.5 524.621094 C 347.1875 526.183594 346.957031 527.757812 346.800781 529.347656 C 346.644531 530.933594 346.566406 532.527344 346.566406 534.121094 Z M 346.566406 534.121094 "/></g><g clip-rule="nonzero" clip-path="url(#451bba6b9d)"><path style=" stroke:none;fill-rule:nonzero;fill:#fa0404;fill-opacity:1;" d="M 69.472656 534.121094 C 69.472656 535.714844 69.550781 537.308594 69.707031 538.894531 C 69.863281 540.480469 70.097656 542.058594 70.40625 543.621094 C 70.71875 545.1875 71.105469 546.730469 71.570312 548.257812 C 72.03125 549.785156 72.570312 551.285156 73.179688 552.757812 C 73.789062 554.230469 74.46875 555.671875 75.222656 557.078125 C 75.972656 558.484375 76.792969 559.851562 77.679688 561.179688 C 78.566406 562.503906 79.515625 563.785156 80.527344 565.015625 C 81.539062 566.25 82.609375 567.429688 83.738281 568.558594 C 84.863281 569.6875 86.042969 570.757812 87.277344 571.769531 C 88.511719 572.78125 89.789062 573.730469 91.117188 574.613281 C 92.441406 575.5 93.808594 576.320312 95.214844 577.074219 C 96.621094 577.824219 98.0625 578.503906 99.535156 579.117188 C 101.011719 579.726562 102.511719 580.261719 104.035156 580.726562 C 105.5625 581.1875 107.109375 581.574219 108.671875 581.886719 C 110.238281 582.199219 111.8125 582.433594 113.402344 582.589844 C 114.988281 582.746094 116.578125 582.824219 118.175781 582.824219 C 119.769531 582.824219 121.359375 582.746094 122.949219 582.589844 C 124.535156 582.433594 126.109375 582.199219 127.675781 581.886719 C 129.238281 581.574219 130.785156 581.1875 132.3125 580.726562 C 133.839844 580.261719 135.339844 579.726562 136.8125 579.117188 C 138.285156 578.503906 139.726562 577.824219 141.132812 577.074219 C 142.539062 576.320312 143.90625 575.5 145.230469 574.613281 C 146.558594 573.730469 147.835938 572.78125 149.070312 571.769531 C 150.304688 570.757812 151.484375 569.6875 152.613281 568.558594 C 153.738281 567.429688 154.808594 566.25 155.820312 565.015625 C 156.832031 563.785156 157.78125 562.503906 158.667969 561.179688 C 159.554688 559.851562 160.375 558.484375 161.125 557.078125 C 161.878906 555.671875 162.558594 554.230469 163.167969 552.757812 C 163.78125 551.285156 164.316406 549.785156 164.78125 548.257812 C 165.242188 546.730469 165.628906 545.1875 165.941406 543.621094 C 166.253906 542.058594 166.484375 540.480469 166.640625 538.894531 C 166.796875 537.308594 166.875 535.714844 166.875 534.121094 C 166.875 532.527344 166.796875 530.933594 166.640625 529.347656 C 166.484375 527.757812 166.253906 526.183594 165.941406 524.621094 C 165.628906 523.054688 165.242188 521.507812 164.78125 519.984375 C 164.316406 518.457031 163.78125 516.957031 163.167969 515.484375 C 162.558594 514.007812 161.878906 512.570312 161.125 511.164062 C 160.375 509.753906 159.554688 508.390625 158.667969 507.0625 C 157.78125 505.738281 156.832031 504.457031 155.820312 503.222656 C 154.808594 501.992188 153.738281 500.8125 152.613281 499.683594 C 151.484375 498.554688 150.304688 497.484375 149.070312 496.472656 C 147.835938 495.460938 146.558594 494.511719 145.230469 493.625 C 143.90625 492.738281 142.539062 491.921875 141.132812 491.167969 C 139.726562 490.417969 138.285156 489.734375 136.8125 489.125 C 135.339844 488.515625 133.839844 487.976562 132.3125 487.515625 C 130.785156 487.050781 129.238281 486.664062 127.675781 486.355469 C 126.109375 486.042969 124.535156 485.808594 122.949219 485.652344 C 121.359375 485.496094 119.769531 485.417969 118.175781 485.417969 C 116.578125 485.417969 114.988281 485.496094 113.402344 485.652344 C 111.8125 485.808594 110.238281 486.042969 108.671875 486.355469 C 107.109375 486.664062 105.5625 487.050781 104.035156 487.515625 C 102.511719 487.976562 101.011719 488.515625 99.535156 489.125 C 98.0625 489.734375 96.621094 490.417969 95.214844 491.167969 C 93.808594 491.921875 92.441406 492.738281 91.117188 493.625 C 89.789062 494.511719 88.511719 495.460938 87.277344 496.472656 C 86.042969 497.484375 84.863281 498.554688 83.738281 499.683594 C 82.609375 500.8125 81.539062 501.992188 80.527344 503.222656 C 79.515625 504.457031 78.566406 505.738281 77.679688 507.0625 C 76.792969 508.390625 75.972656 509.753906 75.222656 511.164062 C 74.46875 512.570312 73.789062 514.007812 73.179688 515.484375 C 72.570312 516.957031 72.03125 518.457031 71.570312 519.984375 C 71.105469 521.507812 70.71875 523.054688 70.40625 524.621094 C 70.097656 526.183594 69.863281 527.757812 69.707031 529.347656 C 69.550781 530.933594 69.472656 532.527344 69.472656 534.121094 Z M 69.472656 534.121094 "/></g></g></svg>