<svg xmlns="http://www.w3.org/2000/svg" xmlns:xlink="http://www.w3.org/1999/xlink" width="800" zoomAndPan="magnify" viewBox="0 0 600 599.999999" height="800" preserveAspectRatio="xMidYMid meet" version="1.2"><defs><clipPath id="b7017a74ca"><path d="M 13 20.820312 L 587.914062 20.820312 L 587.914062 465 L 13 465 Z M 13 20.820312 "/></clipPath><clipPath id="d46197a7f5"><path d="M 346 482 L 443 482 L 443 578.820312 L 346 578.820312 Z M 346 482 "/></clipPath><clipPath id="b39966aceb"><path d="M 72 482 L 169 482 L 169 578.820312 L 72 578.820312 Z M 72 482 "/></clipPath></defs><g id="3dda7a6ffa"><g clip-rule="nonzero" clip-path="url(#b7017a74ca)"><path style=" stroke:none;fill-rule:nonzero;fill:#737373;fill-opacity:1;" d="M 18.597656 113.117188 C 23.164062 107.585938 29.960938 104.378906 37.144531 104.378906 L 447.539062 104.378906 L 467.292969 38.023438 C 470.328125 27.820312 479.699219 20.828125 490.34375 20.828125 L 563.773438 20.828125 C 577.058594 20.828125 587.828125 31.601562 587.828125 44.886719 C 587.828125 58.171875 577.058594 68.9375 563.773438 68.9375 L 508.285156 68.9375 L 418.390625 370.890625 C 428.132812 388.753906 437.378906 414.332031 426.898438 435.757812 C 417.617188 454.730469 396.652344 464.351562 364.589844 464.351562 C 364.007812 464.351562 363.425781 464.328125 362.847656 464.269531 C 360.761719 464.078125 153.542969 445.078125 82.09375 449.125 C 71.675781 449.683594 62.652344 441.710938 62.058594 431.234375 C 61.46875 420.765625 69.480469 411.796875 79.957031 411.214844 C 152.496094 407.121094 348.382812 424.808594 365.429688 426.371094 C 383.011719 426.253906 391.152344 422.386719 392.777344 419.078125 C 394.589844 415.390625 393.300781 408.421875 390.253906 400.535156 C 389.742188 400.507812 389.238281 400.503906 388.714844 400.4375 L 74.769531 362.464844 C 64.394531 361.203125 56.015625 353.390625 54.042969 343.132812 L 13.523438 132.992188 C 12.171875 125.9375 14.03125 118.652344 18.597656 113.117188 Z M 192.855469 229.796875 L 291.59375 229.796875 L 291.59375 152.484375 L 192.855469 152.484375 Z M 403.410156 252.582031 L 314.378906 252.582031 L 314.378906 342.988281 L 374.34375 350.246094 Z M 291.59375 252.582031 L 192.855469 252.582031 L 192.855469 328.289062 L 291.59375 340.230469 Z M 81.175781 229.796875 L 170.066406 229.796875 L 170.066406 152.484375 L 66.269531 152.484375 Z M 314.378906 152.484375 L 314.378906 229.796875 L 410.199219 229.796875 L 433.214844 152.484375 Z M 170.066406 325.53125 L 170.066406 252.582031 L 85.570312 252.582031 L 97.957031 316.800781 Z M 170.066406 325.53125 "/></g><g clip-rule="nonzero" clip-path="url(#d46197a7f5)"><path style=" stroke:none;fill-rule:nonzero;fill:#737373;fill-opacity:1;" d="M 346.03125 530.949219 C 346.03125 532.523438 346.109375 534.09375 346.261719 535.660156 C 346.417969 537.226562 346.648438 538.78125 346.953125 540.324219 C 347.261719 541.871094 347.644531 543.394531 348.101562 544.902344 C 348.558594 546.40625 349.085938 547.886719 349.6875 549.339844 C 350.292969 550.796875 350.964844 552.21875 351.707031 553.605469 C 352.449219 554.992188 353.257812 556.34375 354.128906 557.652344 C 355.003906 558.960938 355.941406 560.222656 356.941406 561.4375 C 357.9375 562.65625 358.996094 563.820312 360.105469 564.933594 C 361.21875 566.046875 362.386719 567.101562 363.601562 568.101562 C 364.820312 569.097656 366.082031 570.035156 367.390625 570.910156 C 368.699219 571.785156 370.046875 572.59375 371.433594 573.335938 C 372.824219 574.078125 374.246094 574.75 375.699219 575.351562 C 377.152344 575.953125 378.632812 576.484375 380.140625 576.941406 C 381.644531 577.398438 383.171875 577.78125 384.714844 578.085938 C 386.257812 578.394531 387.8125 578.625 389.378906 578.777344 C 390.945312 578.933594 392.515625 579.011719 394.089844 579.011719 C 395.664062 579.011719 397.234375 578.933594 398.800781 578.777344 C 400.367188 578.625 401.921875 578.394531 403.46875 578.085938 C 405.011719 577.78125 406.535156 577.398438 408.042969 576.941406 C 409.546875 576.484375 411.027344 575.953125 412.484375 575.351562 C 413.9375 574.75 415.359375 574.078125 416.746094 573.335938 C 418.132812 572.59375 419.484375 571.785156 420.792969 570.910156 C 422.101562 570.035156 423.363281 569.097656 424.578125 568.101562 C 425.796875 567.101562 426.960938 566.046875 428.074219 564.933594 C 429.1875 563.820312 430.242188 562.65625 431.242188 561.4375 C 432.242188 560.222656 433.175781 558.960938 434.050781 557.652344 C 434.925781 556.34375 435.734375 554.992188 436.476562 553.605469 C 437.21875 552.21875 437.890625 550.796875 438.492188 549.339844 C 439.09375 547.886719 439.625 546.40625 440.082031 544.902344 C 440.539062 543.394531 440.921875 541.871094 441.226562 540.324219 C 441.535156 538.78125 441.765625 537.226562 441.917969 535.660156 C 442.074219 534.09375 442.152344 532.523438 442.152344 530.949219 C 442.152344 529.375 442.074219 527.804688 441.917969 526.238281 C 441.765625 524.671875 441.535156 523.117188 441.226562 521.574219 C 440.921875 520.03125 440.539062 518.503906 440.082031 517 C 439.625 515.492188 439.09375 514.011719 438.492188 512.558594 C 437.890625 511.105469 437.21875 509.683594 436.476562 508.292969 C 435.734375 506.90625 434.925781 505.558594 434.050781 504.25 C 433.175781 502.941406 432.242188 501.679688 431.242188 500.460938 C 430.242188 499.246094 429.1875 498.078125 428.074219 496.964844 C 426.960938 495.851562 425.796875 494.796875 424.578125 493.800781 C 423.363281 492.800781 422.101562 491.863281 420.792969 490.988281 C 419.484375 490.113281 418.132812 489.308594 416.746094 488.566406 C 415.359375 487.824219 413.9375 487.152344 412.484375 486.546875 C 411.027344 485.945312 409.546875 485.417969 408.042969 484.960938 C 406.535156 484.503906 405.011719 484.121094 403.46875 483.8125 C 401.921875 483.507812 400.367188 483.277344 398.800781 483.121094 C 397.234375 482.96875 395.664062 482.890625 394.089844 482.890625 C 392.515625 482.890625 390.945312 482.96875 389.378906 483.121094 C 387.8125 483.277344 386.257812 483.507812 384.714844 483.8125 C 383.171875 484.121094 381.644531 484.503906 380.140625 484.960938 C 378.632812 485.417969 377.152344 485.945312 375.699219 486.546875 C 374.246094 487.152344 372.824219 487.824219 371.433594 488.566406 C 370.046875 489.308594 368.699219 490.113281 367.390625 490.988281 C 366.082031 491.863281 364.820312 492.800781 363.601562 493.800781 C 362.386719 494.796875 361.21875 495.851562 360.105469 496.964844 C 358.996094 498.078125 357.9375 499.246094 356.941406 500.460938 C 355.941406 501.679688 355.003906 502.941406 354.128906 504.25 C 353.257812 505.558594 352.449219 506.90625 351.707031 508.292969 C 350.964844 509.683594 350.292969 511.105469 349.6875 512.558594 C 349.085938 514.011719 348.558594 515.492188 348.101562 517 C 347.644531 518.503906 347.261719 520.03125 346.953125 521.574219 C 346.648438 523.117188 346.417969 524.671875 346.261719 526.238281 C 346.109375 527.804688 346.03125 529.375 346.03125 530.949219 Z M 346.03125 530.949219 "/></g><g clip-rule="nonzero" clip-path="url(#b39966aceb)"><path style=" stroke:none;fill-rule:nonzero;fill:#737373;fill-opacity:1;" d="M 72.59375 530.949219 C 72.59375 532.523438 72.671875 534.09375 72.824219 535.660156 C 72.980469 537.226562 73.210938 538.78125 73.515625 540.324219 C 73.824219 541.871094 74.207031 543.394531 74.664062 544.902344 C 75.121094 546.40625 75.648438 547.886719 76.25 549.339844 C 76.855469 550.796875 77.527344 552.21875 78.269531 553.605469 C 79.011719 554.992188 79.820312 556.34375 80.691406 557.652344 C 81.566406 558.960938 82.503906 560.222656 83.503906 561.4375 C 84.5 562.65625 85.558594 563.820312 86.667969 564.933594 C 87.78125 566.046875 88.949219 567.101562 90.164062 568.101562 C 91.382812 569.097656 92.644531 570.035156 93.953125 570.910156 C 95.261719 571.785156 96.609375 572.59375 98 573.335938 C 99.386719 574.078125 100.808594 574.75 102.261719 575.351562 C 103.714844 575.953125 105.195312 576.484375 106.703125 576.941406 C 108.207031 577.398438 109.734375 577.78125 111.277344 578.085938 C 112.820312 578.394531 114.375 578.625 115.941406 578.777344 C 117.507812 578.933594 119.078125 579.011719 120.652344 579.011719 C 122.226562 579.011719 123.796875 578.933594 125.363281 578.777344 C 126.929688 578.625 128.484375 578.394531 130.03125 578.085938 C 131.574219 577.78125 133.097656 577.398438 134.605469 576.941406 C 136.109375 576.484375 137.589844 575.953125 139.046875 575.351562 C 140.5 574.75 141.921875 574.078125 143.308594 573.335938 C 144.695312 572.59375 146.046875 571.785156 147.355469 570.910156 C 148.664062 570.035156 149.925781 569.097656 151.140625 568.101562 C 152.359375 567.101562 153.523438 566.046875 154.636719 564.933594 C 155.75 563.820312 156.804688 562.65625 157.804688 561.4375 C 158.804688 560.222656 159.738281 558.960938 160.613281 557.652344 C 161.488281 556.34375 162.296875 554.992188 163.039062 553.605469 C 163.78125 552.21875 164.453125 550.796875 165.054688 549.339844 C 165.65625 547.886719 166.1875 546.40625 166.644531 544.902344 C 167.101562 543.394531 167.484375 541.871094 167.789062 540.324219 C 168.097656 538.78125 168.328125 537.226562 168.480469 535.660156 C 168.636719 534.09375 168.714844 532.523438 168.714844 530.949219 C 168.714844 529.375 168.636719 527.804688 168.480469 526.238281 C 168.328125 524.671875 168.097656 523.117188 167.789062 521.574219 C 167.484375 520.03125 167.101562 518.503906 166.644531 517 C 166.1875 515.492188 165.65625 514.011719 165.054688 512.558594 C 164.453125 511.105469 163.78125 509.683594 163.039062 508.292969 C 162.296875 506.90625 161.488281 505.558594 160.613281 504.25 C 159.738281 502.941406 158.804688 501.679688 157.804688 500.460938 C 156.804688 499.246094 155.75 498.078125 154.636719 496.964844 C 153.523438 495.851562 152.359375 494.796875 151.140625 493.800781 C 149.925781 492.800781 148.664062 491.863281 147.355469 490.988281 C 146.046875 490.113281 144.695312 489.308594 143.308594 488.566406 C 141.921875 487.824219 140.5 487.152344 139.046875 486.546875 C 137.589844 485.945312 136.109375 485.417969 134.605469 484.960938 C 133.097656 484.503906 131.574219 484.121094 130.03125 483.8125 C 128.484375 483.507812 126.929688 483.277344 125.363281 483.121094 C 123.796875 482.96875 122.226562 482.890625 120.652344 482.890625 C 119.078125 482.890625 117.507812 482.96875 115.941406 483.121094 C 114.375 483.277344 112.820312 483.507812 111.277344 483.8125 C 109.734375 484.121094 108.207031 484.503906 106.703125 484.960938 C 105.195312 485.417969 103.714844 485.945312 102.261719 486.546875 C 100.808594 487.152344 99.386719 487.824219 98 488.566406 C 96.609375 489.308594 95.261719 490.113281 93.953125 490.988281 C 92.644531 491.863281 91.382812 492.800781 90.164062 493.800781 C 88.949219 494.796875 87.78125 495.851562 86.667969 496.964844 C 85.558594 498.078125 84.5 499.246094 83.503906 500.460938 C 82.503906 501.679688 81.566406 502.941406 80.691406 504.25 C 79.820312 505.558594 79.011719 506.90625 78.269531 508.292969 C 77.527344 509.683594 76.855469 511.105469 76.25 512.558594 C 75.648438 514.011719 75.121094 515.492188 74.664062 517 C 74.207031 518.503906 73.824219 520.03125 73.515625 521.574219 C 73.210938 523.117188 72.980469 524.671875 72.824219 526.238281 C 72.671875 527.804688 72.59375 529.375 72.59375 530.949219 Z M 72.59375 530.949219 "/></g></g></svg>